<svg width="38" height="26" viewBox="0 0 38 26" fill="none" xmlns="http://www.w3.org/2000/svg">
<path d="M37.795 6.46223L37.7476 6.17046L37.6984 6.18088C37.3618 4.73776 36.5863 3.4115 35.4618 2.35556C34.3373 1.29963 32.9096 0.557172 31.344 0.214105C29.7784 -0.128962 28.1388 -0.0586198 26.615 0.416993C25.0911 0.892605 23.7453 1.75405 22.7333 2.90165C21.7212 4.04925 21.0843 5.4361 20.8962 6.90174C20.708 8.36738 20.9764 9.8519 21.6702 11.1835C22.364 12.5152 23.4549 13.6395 24.8167 14.4264C26.1785 15.2134 27.7554 15.6307 29.3652 15.6302C29.7876 15.6302 30.193 15.5712 30.5965 15.5173C30.4658 15.9202 30.3313 16.3301 30.1153 16.6983C29.8994 17.2332 29.5622 17.6969 29.2269 18.164C28.9465 18.6694 28.4521 19.0116 28.0884 19.444C27.7076 19.8643 27.1886 20.1439 26.7775 20.493C26.374 20.8577 25.8455 21.04 25.4249 21.297C24.9854 21.528 24.6028 21.7833 24.1936 21.9049L23.1726 22.2904L22.2746 22.6326L23.1915 26L24.3224 25.7499C24.6842 25.6666 25.1256 25.5693 25.6276 25.4529C26.141 25.3661 26.6885 25.1282 27.2984 24.9111C27.8989 24.6627 28.598 24.4978 29.2458 24.1001C29.8975 23.7215 30.6495 23.4054 31.3125 22.8983C31.9547 22.3755 32.7295 21.9222 33.3016 21.2588C33.9267 20.6371 34.5443 19.9841 35.0236 19.2408C35.5786 18.5322 35.9556 17.7542 36.3534 16.9848C36.7133 16.2155 37.0031 15.4288 37.2399 14.6646C37.6889 13.1329 37.8897 11.6775 37.9674 10.4323C38.0318 9.18536 37.9939 8.14855 37.9143 7.3983C37.8877 7.08499 37.8479 6.77273 37.795 6.46223V6.46223ZM16.9572 6.46223L16.9099 6.17046L16.8606 6.18088C16.524 4.73776 15.7486 3.4115 14.624 2.35556C13.4995 1.29963 12.0718 0.557172 10.5062 0.214105C8.94061 -0.128962 7.30104 -0.0586198 5.77721 0.416993C4.25339 0.892605 2.90759 1.75405 1.89554 2.90165C0.883493 4.04925 0.246554 5.4361 0.0584235 6.90174C-0.129707 8.36738 0.13866 9.8519 0.832472 11.1835C1.52629 12.5152 2.61719 13.6395 3.97895 14.4264C5.34072 15.2134 6.91769 15.6307 8.52741 15.6302C8.94985 15.6302 9.35523 15.5712 9.75873 15.5173C9.62802 15.9202 9.49352 16.3301 9.27757 16.6983C9.06161 17.2332 8.72442 17.6969 8.38912 18.164C8.10876 18.6694 7.61434 19.0116 7.25062 19.444C6.86986 19.8643 6.35081 20.1439 5.93974 20.493C5.53624 20.8577 5.00772 21.04 4.58718 21.297C4.14769 21.528 3.76503 21.7833 3.35586 21.9049L2.33481 22.2904C1.76461 22.504 1.43878 22.6291 1.43878 22.6291L2.35564 25.9965L3.48657 25.7464C3.84838 25.6631 4.28977 25.5658 4.79177 25.4495C5.30513 25.3626 5.8526 25.1247 6.46258 24.9076C7.06308 24.6593 7.76209 24.4943 8.40996 24.0966C9.06161 23.718 9.81366 23.4019 10.4767 22.8948C11.1189 22.3721 11.8937 21.9188 12.4657 21.2554C13.0909 20.6336 13.7084 19.9806 14.1877 19.2373C14.7427 18.5288 15.1197 17.7507 15.5175 16.9814C15.8775 16.212 16.1673 15.4253 16.4041 14.6611C16.853 13.1294 17.0538 11.674 17.1315 10.4288C17.1959 9.18188 17.158 8.14508 17.0785 7.39483C17.0502 7.08274 17.0097 6.77167 16.9572 6.46223V6.46223Z" fill="#E4E4E4"/>
</svg>
